<?xml version="1.0" encoding="UTF-8" standalone="no"?><!DOCTYPE svg PUBLIC "-//W3C//DTD SVG 1.1//EN" "http://www.w3.org/Graphics/SVG/1.1/DTD/svg11.dtd"><svg width="100%" height="100%" viewBox="0 0 512 512" version="1.1" xmlns="http://www.w3.org/2000/svg" xmlns:xlink="http://www.w3.org/1999/xlink" xml:space="preserve" xmlns:serif="http://www.serif.com/" style="fill-rule:evenodd;clip-rule:evenodd;stroke-linejoin:round;stroke-miterlimit:2;"><g><path d="M128,137c-42.657,0 -79.727,10.965 -110,25.322l0,128.002c30.184,-5.45 59.138,-8.394 86.82,-9.08c50.9,-1.26 97.525,5.05 139.744,17.12c42.768,-27.11 86.74,-52.815 134.387,-73.048c-74.516,-56.298 -167.388,-88.316 -250.951,-88.316Zm366,71.98c-85.695,15.81 -157.66,53.443 -226.953,96.485c22.08,7.666 42.85,16.937 62.283,27.537c73.712,40.21 128.137,99.163 162.81,160.998l1.86,0l0,-285.02Zm-373.03,90.008c-5.196,-0.034 -10.44,0.016 -15.738,0.15c-27.682,0.703 -56.767,3.78 -87.232,9.5l0,185.362l453.242,0c-33.246,-55.78 -83.587,-108.678 -150.53,-145.195c-55.257,-30.142 -121.817,-49.31 -199.743,-49.817l0.001,0Z" style="fill:#fff;fill-rule:nonzero;"/></g></svg>